<svg aria-roledescription="classDiagram" role="graphics-document document" viewBox="0 0 1872.3828125 1598" height="1598" xmlns="http://www.w3.org/2000/svg" width="1872.3828125" id="diagram"><style>#diagram{font-family:Arial;font-size:16px;fill:#1c2b39;}#diagram .error-icon{fill:hsl(26.6666666667, 56.25%, 98.7254901961%);}#diagram .error-text{fill:rgb(1.421875, 3.4531249999, 5.0781249999);stroke:rgb(1.421875, 3.4531249999, 5.0781249999);}#diagram .edge-thickness-normal{stroke-width:2px;}#diagram .edge-thickness-thick{stroke-width:3.5px;}#diagram .edge-pattern-solid{stroke-dasharray:0;}#diagram .edge-pattern-dashed{stroke-dasharray:3;}#diagram .edge-pattern-dotted{stroke-dasharray:2;}#diagram .marker{fill:#5f6f80;stroke:#5f6f80;}#diagram .marker.cross{stroke:#5f6f80;}#diagram svg{font-family:Arial;font-size:16px;}#diagram g.classGroup text{fill:#1565a0;stroke:none;font-family:Arial;font-size:10px;}#diagram g.classGroup text .title{font-weight:bolder;}#diagram .nodeLabel,#diagram .edgeLabel{color:#1c2b39;}#diagram .edgeLabel .label rect{fill:#e6f0f8;}#diagram .label text{fill:#1c2b39;}#diagram .edgeLabel .label span{background:#e6f0f8;}#diagram .classTitle{font-weight:bolder;}#diagram .node rect,#diagram .node circle,#diagram .node ellipse,#diagram .node polygon,#diagram .node path{fill:#e6f0f8;stroke:#1565a0;stroke-width:1px;}#diagram .divider{stroke:#1565a0;stroke-width:1;}#diagram g.clickable{cursor:pointer;}#diagram g.classGroup rect{fill:#e6f0f8;stroke:#1565a0;}#diagram g.classGroup line{stroke:#1565a0;stroke-width:1;}#diagram .classLabel .box{stroke:none;stroke-width:0;fill:#e6f0f8;opacity:0.5;}#diagram .classLabel .label{fill:#1565a0;font-size:10px;}#diagram .relation{stroke:#5f6f80;stroke-width:1;fill:none;}#diagram .dashed-line{stroke-dasharray:3;}#diagram .dotted-line{stroke-dasharray:1 2;}#diagram #compositionStart,#diagram .composition{fill:#5f6f80!important;stroke:#5f6f80!important;stroke-width:1;}#diagram #compositionEnd,#diagram .composition{fill:#5f6f80!important;stroke:#5f6f80!important;stroke-width:1;}#diagram #dependencyStart,#diagram .dependency{fill:#5f6f80!important;stroke:#5f6f80!important;stroke-width:1;}#diagram #dependencyStart,#diagram .dependency{fill:#5f6f80!important;stroke:#5f6f80!important;stroke-width:1;}#diagram #extensionStart,#diagram .extension{fill:transparent!important;stroke:#5f6f80!important;stroke-width:1;}#diagram #extensionEnd,#diagram .extension{fill:transparent!important;stroke:#5f6f80!important;stroke-width:1;}#diagram #aggregationStart,#diagram .aggregation{fill:transparent!important;stroke:#5f6f80!important;stroke-width:1;}#diagram #aggregationEnd,#diagram .aggregation{fill:transparent!important;stroke:#5f6f80!important;stroke-width:1;}#diagram #lollipopStart,#diagram .lollipop{fill:#e6f0f8!important;stroke:#5f6f80!important;stroke-width:1;}#diagram #lollipopEnd,#diagram .lollipop{fill:#e6f0f8!important;stroke:#5f6f80!important;stroke-width:1;}#diagram .edgeTerminals{font-size:11px;line-height:initial;}#diagram .classTitleText{text-anchor:middle;font-size:18px;fill:#1c2b39;}#diagram :root{--mermaid-font-family:"trebuchet ms",verdana,arial,sans-serif;}</style><g><defs><marker orient="auto" markerHeight="240" markerWidth="190" refY="7" refX="18" class="marker aggregation classDiagram" id="diagram_classDiagram-aggregationStart"><path d="M 18,7 L9,13 L1,7 L9,1 Z"></path></marker></defs><defs><marker orient="auto" markerHeight="28" markerWidth="20" refY="7" refX="1" class="marker aggregation classDiagram" id="diagram_classDiagram-aggregationEnd"><path d="M 18,7 L9,13 L1,7 L9,1 Z"></path></marker></defs><defs><marker orient="auto" markerHeight="240" markerWidth="190" refY="7" refX="18" class="marker extension classDiagram" id="diagram_classDiagram-extensionStart"><path d="M 1,7 L18,13 V 1 Z"></path></marker></defs><defs><marker orient="auto" markerHeight="28" markerWidth="20" refY="7" refX="1" class="marker extension classDiagram" id="diagram_classDiagram-extensionEnd"><path d="M 1,1 V 13 L18,7 Z"></path></marker></defs><defs><marker orient="auto" markerHeight="240" markerWidth="190" refY="7" refX="18" class="marker composition classDiagram" id="diagram_classDiagram-compositionStart"><path d="M 18,7 L9,13 L1,7 L9,1 Z"></path></marker></defs><defs><marker orient="auto" markerHeight="28" markerWidth="20" refY="7" refX="1" class="marker composition classDiagram" id="diagram_classDiagram-compositionEnd"><path d="M 18,7 L9,13 L1,7 L9,1 Z"></path></marker></defs><defs><marker orient="auto" markerHeight="240" markerWidth="190" refY="7" refX="6" class="marker dependency classDiagram" id="diagram_classDiagram-dependencyStart"><path d="M 5,7 L9,13 L1,7 L9,1 Z"></path></marker></defs><defs><marker orient="auto" markerHeight="28" markerWidth="20" refY="7" refX="13" class="marker dependency classDiagram" id="diagram_classDiagram-dependencyEnd"><path d="M 18,7 L9,13 L14,7 L9,1 Z"></path></marker></defs><defs><marker orient="auto" markerHeight="240" markerWidth="190" refY="7" refX="13" class="marker lollipop classDiagram" id="diagram_classDiagram-lollipopStart"><circle r="6" cy="7" cx="7" fill="transparent" stroke="black"></circle></marker></defs><defs><marker orient="auto" markerHeight="240" markerWidth="190" refY="7" refX="1" class="marker lollipop classDiagram" id="diagram_classDiagram-lollipopEnd"><circle r="6" cy="7" cx="7" fill="transparent" stroke="black"></circle></marker></defs><g class="root"><g class="clusters"></g><g class="edgePaths"><path marker-start="url(#diagram_classDiagram-dependencyStart)" style="fill:none" class="edge-pattern-solid relation" id="id_Rol_Usuario_1" d="M136.266,711.25L142.249,711.25C148.232,711.25,160.198,711.25,173.164,711.25C186.13,711.25,200.096,711.25,207.079,711.25L214.063,711.25"></path><path marker-start="url(#diagram_classDiagram-compositionStart)" style="fill:none" class="edge-pattern-solid relation" id="id_Usuario_PerfilUsuario_2" d="M384.792,571.706L409.169,499.922C433.545,428.137,482.298,284.569,518.505,212.784C554.712,141,578.374,141,590.204,141L602.035,141"></path><path marker-start="url(#diagram_classDiagram-compositionStart)" style="fill:none" class="edge-pattern-solid relation" id="id_Usuario_InformacionSalud_3" d="M423.396,573.48L441.339,544.734C459.281,515.987,495.166,458.493,524.825,429.747C554.484,401,577.918,401,589.635,401L601.352,401"></path><path marker-start="url(#diagram_classDiagram-compositionStart)" style="fill:none" class="edge-pattern-solid relation" id="id_Usuario_TokenRecuperacion_4" d="M476.65,637.366L485.717,632.555C494.784,627.744,512.917,618.122,535.332,613.311C557.746,608.5,584.441,608.5,597.789,608.5L611.137,608.5"></path><path style="fill:none" class="edge-pattern-solid relation" id="id_Usuario_Profesional_5" d="M460.75,831.795L472.467,843.246C484.184,854.696,507.617,877.598,549.69,889.049C591.763,900.5,652.475,900.5,710.52,900.5C768.565,900.5,823.943,900.5,866.418,928.042C908.894,955.583,938.467,1010.667,953.254,1038.208L968.041,1065.75"></path><path marker-start="url(#diagram_classDiagram-aggregationStart)" style="fill:none" class="edge-pattern-solid relation" id="id_Establecimiento_Profesional_6" d="M820.348,1267L830.176,1267C840.005,1267,859.663,1267,878.541,1266.243C897.419,1265.486,915.518,1263.972,924.568,1263.216L933.617,1262.459"></path><path marker-start="url(#diagram_classDiagram-compositionStart)" style="fill:none" class="edge-pattern-solid relation" id="id_Profesional_Disponibilidad_7" d="M1214.853,1387.637L1221.035,1393.364C1227.217,1399.091,1239.581,1410.546,1262.078,1416.273C1284.574,1422,1317.203,1422,1333.518,1422L1349.832,1422"></path><path style="fill:none" class="edge-pattern-solid relation" id="id_Disponibilidad_Reserva_8" d="M1478.324,1422L1498.342,1422C1518.361,1422,1558.397,1422,1590.502,1428.999C1622.607,1435.998,1646.78,1449.996,1658.867,1456.995L1670.953,1463.995"></path><path style="fill:none" class="edge-pattern-solid relation" id="id_Usuario_Reserva_9" d="M366.737,833.75L394.123,948.125C421.508,1062.5,476.28,1291.25,534.021,1405.625C591.763,1520,652.475,1520,710.52,1520C768.565,1520,823.943,1520,883.017,1520C942.091,1520,1004.862,1520,1066.966,1520C1129.07,1520,1190.508,1520,1248.249,1520C1305.99,1520,1360.034,1520,1417.782,1520C1475.53,1520,1536.982,1520,1579.794,1520C1622.607,1520,1646.78,1520,1658.867,1520L1670.953,1520"></path><path marker-start="url(#diagram_classDiagram-compositionStart)" style="fill:none" class="edge-pattern-solid relation" id="id_Usuario_Conversacion_10" d="M476.616,785.835L485.689,790.696C494.761,795.557,512.906,805.278,538.439,810.139C563.971,815,596.892,815,613.352,815L629.813,815"></path><path marker-start="url(#diagram_classDiagram-compositionStart)" style="fill:none" class="edge-pattern-solid relation" id="id_Conversacion_Mensaje_11" d="M814.563,815L825.355,815C836.148,815,857.734,815,885.87,815C914.007,815,948.693,815,966.036,815L983.379,815"></path><path marker-start="url(#diagram_classDiagram-compositionStart)" style="fill:none" class="edge-pattern-solid relation" id="id_Usuario_RegistroComida_12" d="M419.06,849.241L437.725,880.784C456.39,912.327,493.721,975.414,525.142,1006.957C556.564,1038.5,582.077,1038.5,594.833,1038.5L607.59,1038.5"></path><path marker-start="url(#diagram_classDiagram-compositionStart)" style="fill:none" class="edge-pattern-solid relation" id="id_Usuario_Favorito_13" d="M374.429,851.151L400.532,949.793C426.636,1048.434,478.843,1245.717,519.184,1344.359C559.525,1443,587.999,1443,602.236,1443L616.473,1443"></path><path marker-end="url(#diagram_classDiagram-dependencyEnd)" style="fill:none" class="edge-pattern-solid relation" id="id_Favorito_Profesional_14" d="M809.902,1443L821.472,1443C833.042,1443,856.181,1443,876.099,1434.499C896.018,1425.998,912.715,1408.995,921.064,1400.494L929.413,1391.993"></path><path marker-start="url(#diagram_classDiagram-compositionStart)" style="fill:none" class="edge-pattern-solid relation" id="id_Usuario_Resena_15" d="M478.742,715.447L487.46,715.706C496.178,715.965,513.615,716.482,552.689,716.741C591.763,717,652.475,717,710.52,717C768.565,717,823.943,717,883.017,717C942.091,717,1004.862,717,1066.966,717C1129.07,717,1190.508,717,1229.609,721.899C1268.711,726.798,1285.477,736.596,1293.859,741.494L1302.242,746.393"></path><path style="fill:none" class="edge-pattern-solid relation" id="id_Profesional_Resena_16" d="M1201.648,1192.899L1210.031,1189.249C1218.414,1185.6,1235.18,1178.3,1264.53,1128.192C1293.879,1078.083,1335.814,985.167,1356.781,938.708L1377.748,892.25"></path><path marker-start="url(#diagram_classDiagram-compositionStart)" style="fill:none" class="edge-pattern-solid relation" id="id_Profesional_DocumentoProfesional_17" d="M1117.367,1048.267L1139.796,956.723C1162.226,865.178,1207.086,682.089,1240.419,590.545C1273.751,499,1295.557,499,1306.46,499L1317.363,499"></path></g><g class="edgeLabels"><g transform="translate(172.1640625, 711.25)" class="edgeLabel"><g transform="translate(-17.8984375, -8.5)" class="label"><rect height="17.000070571899414" width="35.78086471557617" ry="0" rx="0"></rect><text style=""><tspan class="row" x="0" dy="1em" xml:space="preserve">tiene</tspan></text></g></g><g transform="translate(147.7656275, 726.25)" class="edgeTerminals"><g transform="translate(-3.0625, -6)" class="inner"><text style=""><tspan class="row" x="0" dy="1em" xml:space="preserve">1</tspan></text></g></g><g transform="translate(191.5625, 691.25)" class="edgeTerminals"><g transform="translate(-8.614990234375, -6)" class="inner"></g><text style=""><tspan class="row" x="0" dy="1em" xml:space="preserve">0..*</tspan></text></g><g transform="translate(531.05078125, 141)" class="edgeLabel"><g transform="translate(-17.34375, -8.5)" class="label"><rect height="17.000070571899414" width="34.672019958496094" ry="0" rx="0"></rect><text style=""><tspan class="row" x="0" dy="1em" xml:space="preserve">perfil</tspan></text></g></g><g transform="translate(398.83504198522564, 577.0025219972505)" class="edgeTerminals"><g transform="translate(-3.0625, -6)" class="inner"><text style=""><tspan class="row" x="0" dy="1em" xml:space="preserve">1</tspan></text></g></g><g transform="translate(579.535158125, 121)" class="edgeTerminals"><g transform="translate(-9.1796875, -6)" class="inner"></g><text style=""><tspan class="row" x="0" dy="1em" xml:space="preserve">0..1</tspan></text></g><g transform="translate(531.05078125, 401)" class="edgeLabel"><g transform="translate(-19.17578125, -8.5)" class="label"><rect height="17.000070571899414" width="38.333351135253906" ry="0" rx="0"></rect><text style=""><tspan class="row" x="0" dy="1em" xml:space="preserve">salud</tspan></text></g></g><g transform="translate(435.85618259085084, 581.8466688142463)" class="edgeTerminals"><g transform="translate(-3.0625, -6)" class="inner"><text style=""><tspan class="row" x="0" dy="1em" xml:space="preserve">1</tspan></text></g></g><g transform="translate(578.85156125, 381)" class="edgeTerminals"><g transform="translate(-9.1796875, -6)" class="inner"></g><text style=""><tspan class="row" x="0" dy="1em" xml:space="preserve">0..1</tspan></text></g><g transform="translate(531.05078125, 608.5)" class="edgeLabel"><g transform="translate(-46.30078125, -8.5)" class="label"><rect height="17.000070571899414" width="92.54961395263672" ry="0" rx="0"></rect><text style=""><tspan class="row" x="0" dy="1em" xml:space="preserve">recuperación</tspan></text></g></g><g transform="translate(483.2393442975722, 650.8501181895526)" class="edgeTerminals"><g transform="translate(-3.0625, -6)" class="inner"><text style=""><tspan class="row" x="0" dy="1em" xml:space="preserve">1</tspan></text></g></g><g transform="translate(588.636719375, 588.5)" class="edgeTerminals"><g transform="translate(-8.614990234375, -6)" class="inner"></g><text style=""><tspan class="row" x="0" dy="1em" xml:space="preserve">0..*</tspan></text></g><g transform="translate(713.1875, 900.5)" class="edgeLabel"><g transform="translate(-58.2578125, -8.5)" class="label"><rect height="17.000070571899414" width="116.45361328125" ry="0" rx="0"></rect><text style=""><tspan class="row" x="0" dy="1em" xml:space="preserve">ficha profesional</tspan></text></g></g><g transform="translate(462.7813870109126, 854.7537789263785)" class="edgeTerminals"><g transform="translate(-3.0625, -6)" class="inner"><text style=""><tspan class="row" x="0" dy="1em" xml:space="preserve">1</tspan></text></g></g><g transform="translate(967.9784525727091, 1038.2362781609838)" class="edgeTerminals"><g transform="translate(-9.1796875, -6)" class="inner"></g><text style=""><tspan class="row" x="0" dy="1em" xml:space="preserve">0..1</tspan></text></g><g transform="translate(879.3203125, 1267)" class="edgeLabel"><g transform="translate(-24.9609375, -8.5)" class="label"><rect height="17.000070571899414" width="49.89646530151367" ry="0" rx="0"></rect><text style=""><tspan class="row" x="0" dy="1em" xml:space="preserve">agrupa</tspan></text></g></g><g transform="translate(819.847658125, 1282)" class="edgeTerminals"><g transform="translate(-9.1796875, -6)" class="inner"><text style=""><tspan class="row" x="0" dy="1em" xml:space="preserve">0..1</tspan></text></g></g><g transform="translate(909.9278805752884, 1243.9694962885249)" class="edgeTerminals"><g transform="translate(-8.614990234375, -6)" class="inner"></g><text style=""><tspan class="row" x="0" dy="1em" xml:space="preserve">0..*</tspan></text></g><g transform="translate(1251.9453125, 1422)" class="edgeLabel"><g transform="translate(-25.40234375, -8.5)" class="label"><rect height="17.000070571899414" width="50.77873229980469" ry="0" rx="0"></rect><text style=""><tspan class="row" x="0" dy="1em" xml:space="preserve">publica</tspan></text></g></g><g transform="translate(1204.2920927430998, 1398.3009305310009)" class="edgeTerminals"><g transform="translate(-3.0625, -6)" class="inner"><text style=""><tspan class="row" x="0" dy="1em" xml:space="preserve">1</tspan></text></g></g><g transform="translate(1327.332030625, 1402)" class="edgeTerminals"><g transform="translate(-8.614990234375, -6)" class="inner"></g><text style=""><tspan class="row" x="0" dy="1em" xml:space="preserve">0..*</tspan></text></g><g transform="translate(1598.43359375, 1422)" class="edgeLabel"><g transform="translate(-48.51953125, -8.5)" class="label"><rect height="17.000070571899414" width="96.98433685302734" ry="0" rx="0"></rect><text style=""><tspan class="row" x="0" dy="1em" xml:space="preserve">se reserva en</tspan></text></g></g><g transform="translate(1495.824219375, 1437)" class="edgeTerminals"><g transform="translate(-3.0625, -6)" class="inner"><text style=""><tspan class="row" x="0" dy="1em" xml:space="preserve">1</tspan></text></g></g><g transform="translate(1658.3258476642177, 1437.2442278543444)" class="edgeTerminals"><g transform="translate(-8.614990234375, -6)" class="inner"></g><text style=""><tspan class="row" x="0" dy="1em" xml:space="preserve">0..*</tspan></text></g><g transform="translate(1067.6328125, 1520)" class="edgeLabel"><g transform="translate(-23.6171875, -8.5)" class="label"><rect height="17.000070571899414" width="47.21063232421875" ry="0" rx="0"></rect><text style=""><tspan class="row" x="0" dy="1em" xml:space="preserve">realiza</tspan></text></g></g><g transform="translate(356.224553913134, 854.2617767782035)" class="edgeTerminals"><g transform="translate(-3.0625, -6)" class="inner"><text style=""><tspan class="row" x="0" dy="1em" xml:space="preserve">1</tspan></text></g></g><g transform="translate(1648.4531275, 1500)" class="edgeTerminals"><g transform="translate(-8.614990234375, -6)" class="inner"></g><text style=""><tspan class="row" x="0" dy="1em" xml:space="preserve">0..*</tspan></text></g><g transform="translate(531.05078125, 815)" class="edgeLabel"><g transform="translate(-18.28125, -8.5)" class="label"><rect height="17.000070571899414" width="36.54539489746094" ry="0" rx="0"></rect><text style=""><tspan class="row" x="0" dy="1em" xml:space="preserve">inicia</tspan></text></g></g><g transform="translate(469.09155409385085, 798.8210332624068)" class="edgeTerminals"><g transform="translate(-3.0625, -6)" class="inner"><text style=""><tspan class="row" x="0" dy="1em" xml:space="preserve">1</tspan></text></g></g><g transform="translate(607.3125, 795)" class="edgeTerminals"><g transform="translate(-8.614990234375, -6)" class="inner"></g><text style=""><tspan class="row" x="0" dy="1em" xml:space="preserve">0..*</tspan></text></g><g transform="translate(879.3203125, 815)" class="edgeLabel"><g transform="translate(-30.296875, -8.5)" class="label"><rect height="17.000070571899414" width="60.56169891357422" ry="0" rx="0"></rect><text style=""><tspan class="row" x="0" dy="1em" xml:space="preserve">contiene</tspan></text></g></g><g transform="translate(814.0625, 830)" class="edgeTerminals"><g transform="translate(-3.0625, -6)" class="inner"><text style=""><tspan class="row" x="0" dy="1em" xml:space="preserve">1</tspan></text></g></g><g transform="translate(960.878908125, 795)" class="edgeTerminals"><g transform="translate(-8.614990234375, -6)" class="inner"></g><text style=""><tspan class="row" x="0" dy="1em" xml:space="preserve">1..*</tspan></text></g><g transform="translate(531.05078125, 1038.5)" class="edgeLabel"><g transform="translate(-26.7265625, -8.5)" class="label"><rect height="17.000070571899414" width="53.425498962402344" ry="0" rx="0"></rect><text style=""><tspan class="row" x="0" dy="1em" xml:space="preserve">registra</tspan></text></g></g><g transform="translate(405.896225039501, 856.4495988549794)" class="edgeTerminals"><g transform="translate(-3.0625, -6)" class="inner"><text style=""><tspan class="row" x="0" dy="1em" xml:space="preserve">1</tspan></text></g></g><g transform="translate(585.089841875, 1018.5)" class="edgeTerminals"><g transform="translate(-8.614990234375, -6)" class="inner"></g><text style=""><tspan class="row" x="0" dy="1em" xml:space="preserve">0..*</tspan></text></g><g transform="translate(531.05078125, 1443)" class="edgeLabel"><g transform="translate(-24.9609375, -8.5)" class="label"><rect height="17.000070571899414" width="49.89646530151367" ry="0" rx="0"></rect><text style=""><tspan class="row" x="0" dy="1em" xml:space="preserve">guarda</tspan></text></g></g><g transform="translate(359.7997926864448, 854.5050395826165)" class="edgeTerminals"><g transform="translate(-3.0625, -6)" class="inner"><text style=""><tspan class="row" x="0" dy="1em" xml:space="preserve">1</tspan></text></g></g><g transform="translate(593.972658125, 1423)" class="edgeTerminals"><g transform="translate(-8.614990234375, -6)" class="inner"></g><text style=""><tspan class="row" x="0" dy="1em" xml:space="preserve">0..*</tspan></text></g><g transform="translate(879.3203125, 1443)" class="edgeLabel"><g transform="translate(-22.27734375, -8.5)" class="label"><rect height="17.000070571899414" width="44.53262710571289" ry="0" rx="0"></rect><text style=""><tspan class="row" x="0" dy="1em" xml:space="preserve">marca</tspan></text></g></g><g transform="translate(827.402341875, 1458)" class="edgeTerminals"><g transform="translate(-8.614990234375, -6)" class="inner"><text style=""><tspan class="row" x="0" dy="1em" xml:space="preserve">0..*</tspan></text></g></g><g transform="translate(905.6531446971097, 1384.687511823619)" class="edgeTerminals"><g transform="translate(-3.0625, -6)" class="inner"></g><text style=""><tspan class="row" x="0" dy="1em" xml:space="preserve">1</tspan></text></g><g transform="translate(879.3203125, 717)" class="edgeLabel"><g transform="translate(-25.83984375, -8.5)" class="label"><rect height="17.000070571899414" width="51.65318298339844" ry="0" rx="0"></rect><text style=""><tspan class="row" x="0" dy="1em" xml:space="preserve">escribe</tspan></text></g></g><g transform="translate(477.79708052783434, 730.4253204465639)" class="edgeTerminals"><g transform="translate(-3.0625, -6)" class="inner"><text style=""><tspan class="row" x="0" dy="1em" xml:space="preserve">1</tspan></text></g></g><g transform="translate(1289.7014046757479, 719.6129463461901)" class="edgeTerminals"><g transform="translate(-8.614990234375, -6)" class="inner"></g><text style=""><tspan class="row" x="0" dy="1em" xml:space="preserve">0..*</tspan></text></g><g transform="translate(1251.9453125, 1171)" class="edgeLabel"><g transform="translate(-21.83984375, -8.5)" class="label"><rect height="17.000070571899414" width="43.65815734863281" ry="0" rx="0"></rect><text style=""><tspan class="row" x="0" dy="1em" xml:space="preserve">recibe</tspan></text></g></g><g transform="translate(1223.6815808317722, 1199.6662261429703)" class="edgeTerminals"><g transform="translate(-3.0625, -6)" class="inner"><text style=""><tspan class="row" x="0" dy="1em" xml:space="preserve">1</tspan></text></g></g><g transform="translate(1351.8768785087423, 897.0304472310228)" class="edgeTerminals"><g transform="translate(-8.614990234375, -6)" class="inner"></g><text style=""><tspan class="row" x="0" dy="1em" xml:space="preserve">0..*</tspan></text></g><g transform="translate(1251.9453125, 499)" class="edgeLabel"><g transform="translate(-26.296875, -8.5)" class="label"><rect height="17.000070571899414" width="52.56666946411133" ry="0" rx="0"></rect><text style=""><tspan class="row" x="0" dy="1em" xml:space="preserve">adjunta</tspan></text></g></g><g transform="translate(1131.816729616781, 1052.3223919263369)" class="edgeTerminals"><g transform="translate(-3.0625, -6)" class="inner"><text style=""><tspan class="row" x="0" dy="1em" xml:space="preserve">1</tspan></text></g></g><g transform="translate(1294.863280625, 479)" class="edgeTerminals"><g transform="translate(-8.614990234375, -6)" class="inner"></g><text style=""><tspan class="row" x="0" dy="1em" xml:space="preserve">0..*</tspan></text></g></g><g class="nodes"><g transform="translate(69.1328125, 711.25)" data-id="Rol" data-node="true" id="classId-Rol-0" class="node default"><rect height="98" width="122.265625" y="-49" x="-61.1328125" class="outer title-state" style=""></rect><line y2="-20" y1="-20" x2="61.1328125" x1="-61.1328125" class="divider"></line><line y2="38" y1="38" x2="61.1328125" x1="-61.1328125" class="divider"></line><g class="label"><text style=""><tspan class="title-row" x="0" dy="1em" xml:space="preserve"></tspan></text><text transform="translate( -12.890625, -41.5)" class="classTitle" style=""><tspan class="title-row" x="0" dy="1em" xml:space="preserve">Rol</tspan></text><text transform="translate( -53.6328125, -8.5)" style=""><tspan class="title-row" x="0" dy="1em" xml:space="preserve">+int id</tspan></text><text transform="translate( -53.6328125, 12.5)" style=""><tspan class="title-row" x="0" dy="1em" xml:space="preserve">+string nombre</tspan></text></g></g><g transform="translate(337.40625, 711.25)" data-id="Usuario" data-node="true" id="classId-Usuario-1" class="node default"><rect height="245" width="246.6875" y="-122.5" x="-123.34375" class="outer title-state" style=""></rect><line y2="-93.5" y1="-93.5" x2="123.34375" x1="-123.34375" class="divider"></line><line y2="111.5" y1="111.5" x2="123.34375" x1="-123.34375" class="divider"></line><g class="label"><text style=""><tspan class="title-row" x="0" dy="1em" xml:space="preserve"></tspan></text><text transform="translate( -29.8984375, -115)" class="classTitle" style=""><tspan class="title-row" x="0" dy="1em" xml:space="preserve">Usuario</tspan></text><text transform="translate( -115.84375, -82)" style=""><tspan class="title-row" x="0" dy="1em" xml:space="preserve">+int id</tspan></text><text transform="translate( -115.84375, -61)" style=""><tspan class="title-row" x="0" dy="1em" xml:space="preserve">+string nombre</tspan></text><text transform="translate( -115.84375, -40)" style=""><tspan class="title-row" x="0" dy="1em" xml:space="preserve">+string correo</tspan></text><text transform="translate( -115.84375, -19)" style=""><tspan class="title-row" x="0" dy="1em" xml:space="preserve">+string passwordHash [opcional]</tspan></text><text transform="translate( -115.84375, 2)" style=""><tspan class="title-row" x="0" dy="1em" xml:space="preserve">+string googleId [opcional]</tspan></text><text transform="translate( -115.84375, 23)" style=""><tspan class="title-row" x="0" dy="1em" xml:space="preserve">+bool activo</tspan></text><text transform="translate( -115.84375, 44)" style=""><tspan class="title-row" x="0" dy="1em" xml:space="preserve">+int versionSesion</tspan></text><text transform="translate( -115.84375, 65)" style=""><tspan class="title-row" x="0" dy="1em" xml:space="preserve">+bool rolConfirmado</tspan></text><text transform="translate( -115.84375, 86)" style=""><tspan class="title-row" x="0" dy="1em" xml:space="preserve">+datetime fechaRegistro</tspan></text></g></g><g transform="translate(713.1875, 141)" data-id="PerfilUsuario" data-node="true" id="classId-PerfilUsuario-2" class="node default"><rect height="266" width="222.3046875" y="-133" x="-111.15234375" class="outer title-state" style=""></rect><line y2="-104" y1="-104" x2="111.15234375" x1="-111.15234375" class="divider"></line><line y2="101" y1="101" x2="111.15234375" x1="-111.15234375" class="divider"></line><g class="label"><text style=""><tspan class="title-row" x="0" dy="1em" xml:space="preserve"></tspan></text><text transform="translate( -49.90625, -125.5)" class="classTitle" style=""><tspan class="title-row" x="0" dy="1em" xml:space="preserve">PerfilUsuario</tspan></text><text transform="translate( -103.65234375, -92.5)" style=""><tspan class="title-row" x="0" dy="1em" xml:space="preserve">+int id</tspan></text><text transform="translate( -103.65234375, -71.5)" style=""><tspan class="title-row" x="0" dy="1em" xml:space="preserve">+decimal pesoKg</tspan></text><text transform="translate( -103.65234375, -50.5)" style=""><tspan class="title-row" x="0" dy="1em" xml:space="preserve">+decimal alturaCm</tspan></text><text transform="translate( -103.65234375, -29.5)" style=""><tspan class="title-row" x="0" dy="1em" xml:space="preserve">+int edad</tspan></text><text transform="translate( -103.65234375, -8.5)" style=""><tspan class="title-row" x="0" dy="1em" xml:space="preserve">+string sexo</tspan></text><text transform="translate( -103.65234375, 12.5)" style=""><tspan class="title-row" x="0" dy="1em" xml:space="preserve">+string actividadFisica</tspan></text><text transform="translate( -103.65234375, 33.5)" style=""><tspan class="title-row" x="0" dy="1em" xml:space="preserve">+string objetivoPrincipal</tspan></text><text transform="translate( -103.65234375, 54.5)" style=""><tspan class="title-row" x="0" dy="1em" xml:space="preserve">+int comidasDia</tspan></text><text transform="translate( -103.65234375, 75.5)" style=""><tspan class="title-row" x="0" dy="1em" xml:space="preserve">+string horasSueno</tspan></text><text transform="translate( -103.65234375, 108.5)" style=""><tspan class="title-row" x="0" dy="1em" xml:space="preserve">+requerimientoCalorico() : int</tspan></text></g></g><g transform="translate(713.1875, 401)" data-id="InformacionSalud" data-node="true" id="classId-InformacionSalud-3" class="node default"><rect height="182" width="223.671875" y="-91" x="-111.8359375" class="outer title-state" style=""></rect><line y2="-62" y1="-62" x2="111.8359375" x1="-111.8359375" class="divider"></line><line y2="80" y1="80" x2="111.8359375" x1="-111.8359375" class="divider"></line><g class="label"><text style=""><tspan class="title-row" x="0" dy="1em" xml:space="preserve"></tspan></text><text transform="translate( -67.67578125, -83.5)" class="classTitle" style=""><tspan class="title-row" x="0" dy="1em" xml:space="preserve">InformacionSalud</tspan></text><text transform="translate( -104.3359375, -50.5)" style=""><tspan class="title-row" x="0" dy="1em" xml:space="preserve">+int id</tspan></text><text transform="translate( -104.3359375, -29.5)" style=""><tspan class="title-row" x="0" dy="1em" xml:space="preserve">+string[] condicionesMedicas</tspan></text><text transform="translate( -104.3359375, -8.5)" style=""><tspan class="title-row" x="0" dy="1em" xml:space="preserve">+bool tomaMedicamentos</tspan></text><text transform="translate( -104.3359375, 12.5)" style=""><tspan class="title-row" x="0" dy="1em" xml:space="preserve">+string[] medicamentos</tspan></text><text transform="translate( -104.3359375, 33.5)" style=""><tspan class="title-row" x="0" dy="1em" xml:space="preserve">+string[] alergias</tspan></text><text transform="translate( -104.3359375, 54.5)" style=""><tspan class="title-row" x="0" dy="1em" xml:space="preserve">+datetime fechaActualizacion</tspan></text></g></g><g transform="translate(713.1875, 608.5)" data-id="TokenRecuperacion" data-node="true" id="classId-TokenRecuperacion-4" class="node default"><rect height="161" width="204.1015625" y="-80.5" x="-102.05078125" class="outer title-state" style=""></rect><line y2="-51.5" y1="-51.5" x2="102.05078125" x1="-102.05078125" class="divider"></line><line y2="48.5" y1="48.5" x2="102.05078125" x1="-102.05078125" class="divider"></line><g class="label"><text style=""><tspan class="title-row" x="0" dy="1em" xml:space="preserve"></tspan></text><text transform="translate( -75.984375, -73)" class="classTitle" style=""><tspan class="title-row" x="0" dy="1em" xml:space="preserve">TokenRecuperacion</tspan></text><text transform="translate( -94.55078125, -40)" style=""><tspan class="title-row" x="0" dy="1em" xml:space="preserve">+int id</tspan></text><text transform="translate( -94.55078125, -19)" style=""><tspan class="title-row" x="0" dy="1em" xml:space="preserve">+string tokenHash</tspan></text><text transform="translate( -94.55078125, 2)" style=""><tspan class="title-row" x="0" dy="1em" xml:space="preserve">+datetime fechaExpiracion</tspan></text><text transform="translate( -94.55078125, 23)" style=""><tspan class="title-row" x="0" dy="1em" xml:space="preserve">+datetime fechaUso</tspan></text><text transform="translate( -94.55078125, 56)" style=""><tspan class="title-row" x="0" dy="1em" xml:space="preserve">+estaVigente() : bool</tspan></text></g></g><g transform="translate(1067.6328125, 1251.25)" data-id="Profesional" data-node="true" id="classId-Profesional-5" class="node default"><rect height="371" width="268.03125" y="-185.5" x="-134.015625" class="outer title-state" style=""></rect><line y2="-156.5" y1="-156.5" x2="134.015625" x1="-134.015625" class="divider"></line><line y2="153.5" y1="153.5" x2="134.015625" x1="-134.015625" class="divider"></line><g class="label"><text style=""><tspan class="title-row" x="0" dy="1em" xml:space="preserve"></tspan></text><text transform="translate( -43.5703125, -178)" class="classTitle" style=""><tspan class="title-row" x="0" dy="1em" xml:space="preserve">Profesional</tspan></text><text transform="translate( -126.515625, -145)" style=""><tspan class="title-row" x="0" dy="1em" xml:space="preserve">+int id</tspan></text><text transform="translate( -126.515625, -124)" style=""><tspan class="title-row" x="0" dy="1em" xml:space="preserve">+string especialidad</tspan></text><text transform="translate( -126.515625, -103)" style=""><tspan class="title-row" x="0" dy="1em" xml:space="preserve">+string descripcion</tspan></text><text transform="translate( -126.515625, -82)" style=""><tspan class="title-row" x="0" dy="1em" xml:space="preserve">+bool verificado</tspan></text><text transform="translate( -126.515625, -61)" style=""><tspan class="title-row" x="0" dy="1em" xml:space="preserve">+string estadoVerificacion</tspan></text><text transform="translate( -126.515625, -40)" style=""><tspan class="title-row" x="0" dy="1em" xml:space="preserve">+string motivoRechazo [opcional]</tspan></text><text transform="translate( -126.515625, -19)" style=""><tspan class="title-row" x="0" dy="1em" xml:space="preserve">+json historialVerificacion [opcional]</tspan></text><text transform="translate( -126.515625, 2)" style=""><tspan class="title-row" x="0" dy="1em" xml:space="preserve">+int revisionVerificacion</tspan></text><text transform="translate( -126.515625, 23)" style=""><tspan class="title-row" x="0" dy="1em" xml:space="preserve">+string rut [opcional]</tspan></text><text transform="translate( -126.515625, 44)" style=""><tspan class="title-row" x="0" dy="1em" xml:space="preserve">+string telefono [opcional]</tspan></text><text transform="translate( -126.515625, 65)" style=""><tspan class="title-row" x="0" dy="1em" xml:space="preserve">+decimal ubicacionLat</tspan></text><text transform="translate( -126.515625, 86)" style=""><tspan class="title-row" x="0" dy="1em" xml:space="preserve">+decimal ubicacionLng</tspan></text><text transform="translate( -126.515625, 107)" style=""><tspan class="title-row" x="0" dy="1em" xml:space="preserve">+string comuna [opcional]</tspan></text><text transform="translate( -126.515625, 128)" style=""><tspan class="title-row" x="0" dy="1em" xml:space="preserve">+Modalidad modalidad</tspan></text><text transform="translate( -126.515625, 161)" style=""><tspan class="title-row" x="0" dy="1em" xml:space="preserve">+calificacionPromedio() : decimal</tspan></text></g></g><g transform="translate(1414.078125, 499)" data-id="DocumentoProfesional" data-node="true" id="classId-DocumentoProfesional-6" class="node default"><rect height="203" width="193.4296875" y="-101.5" x="-96.71484375" class="outer title-state" style=""></rect><line y2="-72.5" y1="-72.5" x2="96.71484375" x1="-96.71484375" class="divider"></line><line y2="90.5" y1="90.5" x2="96.71484375" x1="-96.71484375" class="divider"></line><g class="label"><text style=""><tspan class="title-row" x="0" dy="1em" xml:space="preserve"></tspan></text><text transform="translate( -87.5703125, -94)" class="classTitle" style=""><tspan class="title-row" x="0" dy="1em" xml:space="preserve">DocumentoProfesional</tspan></text><text transform="translate( -89.21484375, -61)" style=""><tspan class="title-row" x="0" dy="1em" xml:space="preserve">+int id</tspan></text><text transform="translate( -89.21484375, -40)" style=""><tspan class="title-row" x="0" dy="1em" xml:space="preserve">+string tipo</tspan></text><text transform="translate( -89.21484375, -19)" style=""><tspan class="title-row" x="0" dy="1em" xml:space="preserve">+string nombre</tspan></text><text transform="translate( -89.21484375, 2)" style=""><tspan class="title-row" x="0" dy="1em" xml:space="preserve">+string clave</tspan></text><text transform="translate( -89.21484375, 23)" style=""><tspan class="title-row" x="0" dy="1em" xml:space="preserve">+string mime</tspan></text><text transform="translate( -89.21484375, 44)" style=""><tspan class="title-row" x="0" dy="1em" xml:space="preserve">+int tamano</tspan></text><text transform="translate( -89.21484375, 65)" style=""><tspan class="title-row" x="0" dy="1em" xml:space="preserve">+datetime fechaCreacion</tspan></text></g></g><g transform="translate(713.1875, 1443)" data-id="Favorito" data-node="true" id="classId-Favorito-7" class="node default"><rect height="98" width="193.4296875" y="-49" x="-96.71484375" class="outer title-state" style=""></rect><line y2="-20" y1="-20" x2="96.71484375" x1="-96.71484375" class="divider"></line><line y2="38" y1="38" x2="96.71484375" x1="-96.71484375" class="divider"></line><g class="label"><text style=""><tspan class="title-row" x="0" dy="1em" xml:space="preserve"></tspan></text><text transform="translate( -31.671875, -41.5)" class="classTitle" style=""><tspan class="title-row" x="0" dy="1em" xml:space="preserve">Favorito</tspan></text><text transform="translate( -89.21484375, -8.5)" style=""><tspan class="title-row" x="0" dy="1em" xml:space="preserve">+int id</tspan></text><text transform="translate( -89.21484375, 12.5)" style=""><tspan class="title-row" x="0" dy="1em" xml:space="preserve">+datetime fechaCreacion</tspan></text></g></g><g transform="translate(1414.078125, 811.75)" data-id="Resena" data-node="true" id="classId-Resena-8" class="node default"><rect height="161" width="223.671875" y="-80.5" x="-111.8359375" class="outer title-state" style=""></rect><line y2="-51.5" y1="-51.5" x2="111.8359375" x1="-111.8359375" class="divider"></line><line y2="69.5" y1="69.5" x2="111.8359375" x1="-111.8359375" class="divider"></line><g class="label"><text style=""><tspan class="title-row" x="0" dy="1em" xml:space="preserve"></tspan></text><text transform="translate( -28.51171875, -73)" class="classTitle" style=""><tspan class="title-row" x="0" dy="1em" xml:space="preserve">Resena</tspan></text><text transform="translate( -104.3359375, -40)" style=""><tspan class="title-row" x="0" dy="1em" xml:space="preserve">+int id</tspan></text><text transform="translate( -104.3359375, -19)" style=""><tspan class="title-row" x="0" dy="1em" xml:space="preserve">+int puntaje</tspan></text><text transform="translate( -104.3359375, 2)" style=""><tspan class="title-row" x="0" dy="1em" xml:space="preserve">+string comentario [opcional]</tspan></text><text transform="translate( -104.3359375, 23)" style=""><tspan class="title-row" x="0" dy="1em" xml:space="preserve">+datetime fechaCreacion</tspan></text><text transform="translate( -104.3359375, 44)" style=""><tspan class="title-row" x="0" dy="1em" xml:space="preserve">+datetime fechaActualizacion</tspan></text></g></g><g transform="translate(713.1875, 1267)" data-id="Establecimiento" data-node="true" id="classId-Establecimiento-9" class="node default"><rect height="182" width="178.3203125" y="-91" x="-89.16015625" class="outer title-state" style=""></rect><line y2="-62" y1="-62" x2="89.16015625" x1="-89.16015625" class="divider"></line><line y2="80" y1="80" x2="89.16015625" x1="-89.16015625" class="divider"></line><g class="label"><text style=""><tspan class="title-row" x="0" dy="1em" xml:space="preserve"></tspan></text><text transform="translate( -61.46484375, -83.5)" class="classTitle" style=""><tspan class="title-row" x="0" dy="1em" xml:space="preserve">Establecimiento</tspan></text><text transform="translate( -81.66015625, -50.5)" style=""><tspan class="title-row" x="0" dy="1em" xml:space="preserve">+int id</tspan></text><text transform="translate( -81.66015625, -29.5)" style=""><tspan class="title-row" x="0" dy="1em" xml:space="preserve">+string nombre</tspan></text><text transform="translate( -81.66015625, -8.5)" style=""><tspan class="title-row" x="0" dy="1em" xml:space="preserve">+string categoria</tspan></text><text transform="translate( -81.66015625, 12.5)" style=""><tspan class="title-row" x="0" dy="1em" xml:space="preserve">+string direccion</tspan></text><text transform="translate( -81.66015625, 33.5)" style=""><tspan class="title-row" x="0" dy="1em" xml:space="preserve">+decimal ubicacionLat</tspan></text><text transform="translate( -81.66015625, 54.5)" style=""><tspan class="title-row" x="0" dy="1em" xml:space="preserve">+decimal ubicacionLng</tspan></text></g></g><g transform="translate(1414.078125, 1422)" data-id="Disponibilidad" data-node="true" id="classId-Disponibilidad-10" class="node default"><rect height="140" width="128.4921875" y="-70" x="-64.24609375" class="outer title-state" style=""></rect><line y2="-41" y1="-41" x2="64.24609375" x1="-64.24609375" class="divider"></line><line y2="59" y1="59" x2="64.24609375" x1="-64.24609375" class="divider"></line><g class="label"><text style=""><tspan class="title-row" x="0" dy="1em" xml:space="preserve"></tspan></text><text transform="translate( -55.22265625, -62.5)" class="classTitle" style=""><tspan class="title-row" x="0" dy="1em" xml:space="preserve">Disponibilidad</tspan></text><text transform="translate( -56.74609375, -29.5)" style=""><tspan class="title-row" x="0" dy="1em" xml:space="preserve">+int id</tspan></text><text transform="translate( -56.74609375, -8.5)" style=""><tspan class="title-row" x="0" dy="1em" xml:space="preserve">+date fecha</tspan></text><text transform="translate( -56.74609375, 12.5)" style=""><tspan class="title-row" x="0" dy="1em" xml:space="preserve">+time horaInicio</tspan></text><text transform="translate( -56.74609375, 33.5)" style=""><tspan class="title-row" x="0" dy="1em" xml:space="preserve">+time horaFin</tspan></text></g></g><g transform="translate(1767.66796875, 1520)" data-id="Reserva" data-node="true" id="classId-Reserva-11" class="node default"><rect height="140" width="193.4296875" y="-70" x="-96.71484375" class="outer title-state" style=""></rect><line y2="-41" y1="-41" x2="96.71484375" x1="-96.71484375" class="divider"></line><line y2="59" y1="59" x2="96.71484375" x1="-96.71484375" class="divider"></line><g class="label"><text style=""><tspan class="title-row" x="0" dy="1em" xml:space="preserve"></tspan></text><text transform="translate( -31.1875, -62.5)" class="classTitle" style=""><tspan class="title-row" x="0" dy="1em" xml:space="preserve">Reserva</tspan></text><text transform="translate( -89.21484375, -29.5)" style=""><tspan class="title-row" x="0" dy="1em" xml:space="preserve">+int id</tspan></text><text transform="translate( -89.21484375, -8.5)" style=""><tspan class="title-row" x="0" dy="1em" xml:space="preserve">+string mensaje</tspan></text><text transform="translate( -89.21484375, 12.5)" style=""><tspan class="title-row" x="0" dy="1em" xml:space="preserve">+EstadoReserva estado</tspan></text><text transform="translate( -89.21484375, 33.5)" style=""><tspan class="title-row" x="0" dy="1em" xml:space="preserve">+datetime fechaCreacion</tspan></text></g></g><g transform="translate(713.1875, 815)" data-id="Conversacion" data-node="true" id="classId-Conversacion-12" class="node default"><rect height="98" width="166.75" y="-49" x="-83.375" class="outer title-state" style=""></rect><line y2="-20" y1="-20" x2="83.375" x1="-83.375" class="divider"></line><line y2="38" y1="38" x2="83.375" x1="-83.375" class="divider"></line><g class="label"><text style=""><tspan class="title-row" x="0" dy="1em" xml:space="preserve"></tspan></text><text transform="translate( -53.01953125, -41.5)" class="classTitle" style=""><tspan class="title-row" x="0" dy="1em" xml:space="preserve">Conversacion</tspan></text><text transform="translate( -75.875, -8.5)" style=""><tspan class="title-row" x="0" dy="1em" xml:space="preserve">+int id</tspan></text><text transform="translate( -75.875, 12.5)" style=""><tspan class="title-row" x="0" dy="1em" xml:space="preserve">+datetime fechaInicio</tspan></text></g></g><g transform="translate(1067.6328125, 815)" data-id="Mensaje" data-node="true" id="classId-Mensaje-13" class="node default"><rect height="140" width="168.5078125" y="-70" x="-84.25390625" class="outer title-state" style=""></rect><line y2="-41" y1="-41" x2="84.25390625" x1="-84.25390625" class="divider"></line><line y2="59" y1="59" x2="84.25390625" x1="-84.25390625" class="divider"></line><g class="label"><text style=""><tspan class="title-row" x="0" dy="1em" xml:space="preserve"></tspan></text><text transform="translate( -31.62109375, -62.5)" class="classTitle" style=""><tspan class="title-row" x="0" dy="1em" xml:space="preserve">Mensaje</tspan></text><text transform="translate( -76.75390625, -29.5)" style=""><tspan class="title-row" x="0" dy="1em" xml:space="preserve">+int id</tspan></text><text transform="translate( -76.75390625, -8.5)" style=""><tspan class="title-row" x="0" dy="1em" xml:space="preserve">+Remitente remitente</tspan></text><text transform="translate( -76.75390625, 12.5)" style=""><tspan class="title-row" x="0" dy="1em" xml:space="preserve">+string contenido</tspan></text><text transform="translate( -76.75390625, 33.5)" style=""><tspan class="title-row" x="0" dy="1em" xml:space="preserve">+datetime fecha</tspan></text></g></g><g transform="translate(713.1875, 1038.5)" data-id="RegistroComida" data-node="true" id="classId-RegistroComida-14" class="node default"><rect height="203" width="211.1953125" y="-101.5" x="-105.59765625" class="outer title-state" style=""></rect><line y2="-72.5" y1="-72.5" x2="105.59765625" x1="-105.59765625" class="divider"></line><line y2="90.5" y1="90.5" x2="105.59765625" x1="-105.59765625" class="divider"></line><g class="label"><text style=""><tspan class="title-row" x="0" dy="1em" xml:space="preserve"></tspan></text><text transform="translate( -61.8359375, -94)" class="classTitle" style=""><tspan class="title-row" x="0" dy="1em" xml:space="preserve">RegistroComida</tspan></text><text transform="translate( -98.09765625, -61)" style=""><tspan class="title-row" x="0" dy="1em" xml:space="preserve">+int id</tspan></text><text transform="translate( -98.09765625, -40)" style=""><tspan class="title-row" x="0" dy="1em" xml:space="preserve">+date fecha</tspan></text><text transform="translate( -98.09765625, -19)" style=""><tspan class="title-row" x="0" dy="1em" xml:space="preserve">+string descripcionAlimento</tspan></text><text transform="translate( -98.09765625, 2)" style=""><tspan class="title-row" x="0" dy="1em" xml:space="preserve">+int calorias</tspan></text><text transform="translate( -98.09765625, 23)" style=""><tspan class="title-row" x="0" dy="1em" xml:space="preserve">+decimal proteinasG</tspan></text><text transform="translate( -98.09765625, 44)" style=""><tspan class="title-row" x="0" dy="1em" xml:space="preserve">+decimal carbohidratosG</tspan></text><text transform="translate( -98.09765625, 65)" style=""><tspan class="title-row" x="0" dy="1em" xml:space="preserve">+decimal grasasG</tspan></text></g></g></g></g></g></svg>